<svg width="128" height="128" viewBox="0 0 128 128" fill="none" xmlns="http://www.w3.org/2000/svg">
  <!-- Background gradient circle -->
  <circle cx="64" cy="64" r="60" fill="url(#grad1)"/>

  <!-- Gradient definition -->
  <defs>
    <linearGradient id="grad1" x1="0%" y1="0%" x2="100%" y2="100%">
      <stop offset="0%" style="stop-color:#8B5CF6;stop-opacity:1" />
      <stop offset="100%" style="stop-color:#EC4899;stop-opacity:1" />
    </linearGradient>
  </defs>

  <!-- Download arrow -->
  <g transform="translate(64, 64)">
    <!-- Arrow shaft -->
    <rect x="-6" y="-28" width="12" height="36" rx="2" fill="white"/>

    <!-- Arrow head -->
    <path d="M -20 8 L 0 28 L 20 8 L 12 8 L 0 20 L -12 8 Z" fill="white"/>

    <!-- Download tray -->
    <rect x="-24" y="24" width="48" height="8" rx="2" fill="white" opacity="0.9"/>
  </g>

  <!-- AI Sparkles -->
  <!-- Top right sparkle -->
  <g transform="translate(90, 30)">
    <path d="M 0 -8 L 2 -2 L 8 0 L 2 2 L 0 8 L -2 2 L -8 0 L -2 -2 Z" fill="#FCD34D" opacity="0.95"/>
  </g>

  <!-- Top left sparkle -->
  <g transform="translate(38, 25)">
    <path d="M 0 -6 L 1.5 -1.5 L 6 0 L 1.5 1.5 L 0 6 L -1.5 1.5 L -6 0 L -1.5 -1.5 Z" fill="#FCD34D" opacity="0.85"/>
  </g>

  <!-- Bottom right sparkle -->
  <g transform="translate(95, 70)">
    <path d="M 0 -5 L 1.2 -1.2 L 5 0 L 1.2 1.2 L 0 5 L -1.2 1.2 L -5 0 L -1.2 -1.2 Z" fill="#FCD34D" opacity="0.8"/>
  </g>
</svg>
